HIERARCHY
ROOT Pelvis
{
	OFFSET 0.000000 0.000000 0.000000
	CHANNELS 6 Xposition Yposition Zposition Zrotation Yrotation Xrotation 
	JOINT Left_hip
	{
		OFFSET 0.070241 -0.085575 -0.010474
		CHANNELS 3 Zrotation Yrotation Xrotation
		JOINT Left_knee
		{
			OFFSET 0.032125 -0.356873 -0.000555
			CHANNELS 3 Zrotation Yrotation Xrotation
			JOINT Left_ankle
			{
				OFFSET -0.010961 -0.370212 -0.042278
				CHANNELS 3 Zrotation Yrotation Xrotation
				JOINT Left_foot
				{
					OFFSET 0.023322 -0.052281 0.110104
					CHANNELS 3 Zrotation Yrotation Xrotation
					End Site
					{
						OFFSET 0.000000 0.000000 0.000000
					}
				}
			}
		}
	}
	JOINT Right_hip
	{
		OFFSET -0.068518 -0.084320 -0.007402
		CHANNELS 3 Zrotation Yrotation Xrotation
		JOINT Right_knee
		{
			OFFSET -0.037345 -0.364815 -0.003619
			CHANNELS 3 Zrotation Yrotation Xrotation
			JOINT Right_ankle
			{
				OFFSET 0.013394 -0.370006 -0.039954
				CHANNELS 3 Zrotation Yrotation Xrotation
				JOINT Right_foot
				{
					OFFSET -0.019600 -0.045455 0.113223
					CHANNELS 3 Zrotation Yrotation Xrotation
					End Site
					{
						OFFSET 0.000000 0.000000 0.000000
					}
				}
			}
		}
	}
	JOINT Spine1
	{
		OFFSET -0.002404 0.098129 -0.018169
		CHANNELS 3 Zrotation Yrotation Xrotation
		JOINT Spine2
		{
			OFFSET 0.003989 0.127209 -0.001742
			CHANNELS 3 Zrotation Yrotation Xrotation
			JOINT Spine3
			{
				OFFSET 0.001758 0.046641 0.023475
				CHANNELS 3 Zrotation Yrotation Xrotation
				JOINT Neck
				{
					OFFSET -0.003759 0.194901 -0.039982
					CHANNELS 3 Zrotation Yrotation Xrotation
					JOINT Head
					{
						OFFSET 0.003999 0.063756 0.047665
						CHANNELS 3 Zrotation Yrotation Xrotation
						End Site
						{
							OFFSET 0.000000 0.000000 0.000000
						}
					}
				}
				JOINT Left_collar
				{
					OFFSET 0.071816 0.109048 -0.028973
					CHANNELS 3 Zrotation Yrotation Xrotation
					JOINT Left_shoulder
					{
						OFFSET 0.084027 0.032269 -0.006525
						CHANNELS 3 Zrotation Yrotation Xrotation
						JOINT Left_elbow
						{
							OFFSET 0.243854 -0.013992 -0.025905
							CHANNELS 3 Zrotation Yrotation Xrotation
							JOINT Left_wrist
							{
								OFFSET 0.232156 0.008196 -0.000339
								CHANNELS 3 Zrotation Yrotation Xrotation
								JOINT Left_palm
								{
									OFFSET 0.075377 -0.009461 -0.012494
									CHANNELS 3 Zrotation Yrotation Xrotation
									End Site
									{
										OFFSET 0.000000 0.000000 0.000000
									}
								}
							}
						}
					}
				}
				JOINT Right_collar
				{
					OFFSET -0.073768 0.107001 -0.033755
					CHANNELS 3 Zrotation Yrotation Xrotation
					JOINT Right_shoulder
					{
						OFFSET -0.086837 0.032868 -0.009431
						CHANNELS 3 Zrotation Yrotation Xrotation
						JOINT Right_elbow
						{
							OFFSET -0.236446 -0.012544 -0.018747
							CHANNELS 3 Zrotation Yrotation Xrotation
							JOINT Right_wrist
							{
								OFFSET -0.236110 0.006124 -0.004327
								CHANNELS 3 Zrotation Yrotation Xrotation
								JOINT Right_palm
								{
									OFFSET -0.074800 -0.006875 -0.009610
									CHANNELS 3 Zrotation Yrotation Xrotation
									End Site
									{
										OFFSET 0.000000 0.000000 0.000000
									}
								}
							}
						}
					}
				}
			}
		}
	}
}
MOTION
Frames: 8
Frame Time: 0.100000
0.266695 -0.151897 0.880554 171.979197 36.431553 -22.963349 -0.568839 4.107859 11.005933 -2.981157 1.827015 -3.739328 3.377311 6.462071 -0.109597 -1.333103 12.270235 -10.243484 -2.933935 -1.548505 -1.170476 -0.775948 0.460917 10.243341 8.567718 -5.755145 -0.951259 -7.534755 5.262039 -2.166081 -2.217015 0.813152 3.860660 0.682037 -0.729997 4.347873 -0.998721 -0.836475 2.199612 1.161638 -2.677675 5.406168 -3.338191 -10.006063 15.189297 -18.356085 -3.409390 1.560877 -61.403111 -20.038584 23.066600 -168.613975 -74.018938 -161.902608 39.371981 -0.676618 -15.639469 -17.082015 -6.891171 -1.085468 21.959817 7.174581 1.971570 61.168866 10.826338 26.595468 -148.572020 71.642760 -119.150297 -46.913490 11.631409 3.621495 23.084586 14.662302 -10.363344 
0.254629 -0.158819 0.906700 171.418982 37.570023 -23.151378 -0.165575 3.576847 12.911069 -2.624007 1.911386 -4.192606 3.341514 6.198211 -0.252419 -1.500713 12.201761 -9.976934 -3.222927 -2.138848 1.003483 -0.675022 0.421208 6.306953 8.696270 -4.932917 0.039603 -7.111926 5.195868 -1.649588 -1.823317 1.117425 1.930737 0.866269 -0.818535 5.098409 -0.855154 -0.463811 1.981416 0.684725 -2.215126 5.862365 -3.534956 -9.625420 14.465062 -17.829095 -4.169984 1.147845 -62.909995 -21.237319 24.564822 -167.922055 -72.487950 -163.998995 36.093430 0.756441 -20.656421 -16.765409 -6.715851 1.227772 21.540344 7.881386 2.022741 61.118432 12.502482 27.376242 -151.668474 70.615991 -122.385144 -45.475160 11.224391 3.847671 23.283875 14.993773 -10.230204 
0.246370 -0.164998 0.932875 171.161297 37.858430 -22.574237 0.442884 3.276096 14.121785 -2.295031 2.143287 -4.849503 3.543513 6.103591 -0.312384 -2.319953 11.643892 -9.193082 -2.664723 -3.187045 3.909023 -0.338554 -0.411102 2.655734 7.132962 -4.055393 -0.338685 -4.509743 4.272343 -0.162576 -1.444557 1.652851 -0.080353 1.084598 -0.721556 5.212025 -0.718236 -0.078992 1.347021 0.426933 -2.062590 6.404157 -3.833766 -9.301736 14.063236 -18.236245 -3.957903 0.940609 -63.069320 -21.745683 25.178770 -168.230018 -71.381361 -164.487054 32.756117 1.295271 -25.546814 -16.121167 -6.223180 3.359403 22.036295 7.792706 2.149067 60.211067 14.100514 27.530849 -155.273849 69.708283 -125.757000 -43.623971 10.966796 2.098782 22.937437 14.584418 -9.009893 
0.240380 -0.169801 0.955869 171.024838 37.904400 -21.934581 0.920163 2.727910 15.487891 -2.023218 2.579741 -6.145167 3.248872 6.183925 -0.112895 -2.356306 11.062395 -8.191996 -2.338703 -3.239949 6.678120 0.129817 -0.470714 -1.135277 6.647902 -3.377451 -0.166235 -3.475763 3.769606 0.815881 -1.218283 2.093257 -2.027740 1.394511 -1.173015 6.050046 -0.489498 0.214104 0.700147 -0.471387 -1.309920 5.819577 -3.611394 -8.817144 11.280018 -17.695791 -5.676686 0.620583 -62.946069 -23.116481 25.840667 -172.150323 -69.561810 -162.698531 30.542741 2.111849 -31.118726 -15.958389 -6.151785 5.854095 21.667224 8.888178 2.080834 59.577051 15.989502 27.800731 -157.458291 67.537450 -127.423058 -42.097028 10.930035 3.281143 23.010419 14.975868 -8.645116 
0.237970 -0.172543 0.972570 171.258336 37.821083 -20.881618 1.195539 2.449980 15.788318 -1.940990 3.178351 -6.682233 3.112232 6.135416 -0.081357 -2.549549 10.492991 -7.540845 -2.101216 -3.559668 7.024070 0.388558 -0.711200 -1.780574 6.207788 -2.472287 -0.611376 -2.784812 3.168196 1.331060 -0.881637 2.079932 -2.839584 1.535155 -1.797889 6.521356 -0.195040 0.305069 -0.003076 -2.254438 0.606667 4.006460 -3.228649 -6.329161 7.077903 -16.841825 -8.021612 -0.000980 -62.732269 -25.504807 25.957893 179.579891 -65.563262 -156.819806 29.682275 3.633874 -37.369441 -16.112448 -5.813443 8.933349 20.963676 9.530070 2.051134 58.835594 16.145943 27.610083 -162.394261 62.677441 -131.889174 -38.919351 10.577704 1.616662 22.492664 14.906345 -7.564830 
0.237632 -0.174614 0.985634 171.129767 39.181608 -20.124637 1.336918 1.788727 15.445240 -1.762035 2.656118 -6.588907 3.826367 5.703032 0.580561 -4.278231 11.466361 -9.179388 -1.929536 -4.009703 7.111036 0.515893 -0.327712 -1.932700 6.833677 -3.985674 -1.352859 -4.328015 4.816910 0.972363 -0.586525 2.040668 -3.104217 0.719272 -1.697508 6.242397 0.092747 0.004882 0.014621 -2.580407 1.174250 2.330940 -0.367180 -1.453373 4.267929 -16.261159 -10.291316 -1.658991 -61.133063 -31.933224 24.540548 171.299590 -59.413146 -150.181668 29.544236 3.385549 -38.535096 -14.949393 -5.222882 11.863347 18.091440 7.093024 2.663068 52.166812 7.843834 24.571445 -171.064247 56.552152 -140.936754 -35.118035 10.313964 -4.134842 20.840569 13.519039 -5.812538 
0.237380 -0.176269 0.995471 170.809481 41.624994 -19.380738 1.522370 0.746815 14.647530 -1.767804 0.666260 -6.852837 3.901364 5.927326 1.673685 -5.176385 12.500893 -11.956339 -1.948968 -4.755278 7.308366 0.803841 0.541838 -2.683412 7.404234 -7.448270 -2.062885 -5.994620 6.669572 1.214423 0.298771 1.188066 -3.683244 -1.580312 -1.257240 5.901483 0.408608 -1.242900 0.572852 -2.129908 -0.034610 1.997870 4.456314 8.243505 1.761670 -16.703765 -11.369754 -3.458590 -56.999006 -37.680848 22.454690 163.275575 -53.511546 -145.469187 22.477602 -0.374294 -37.195308 -11.346942 -3.110372 12.981298 11.160435 2.149091 3.234102 38.772679 -6.452396 22.326308 177.903312 57.058530 -157.422052 -14.545086 8.831638 -16.424697 12.861810 9.011518 -1.895575 
0.237485 -0.177462 1.001158 170.732960 43.226068 -18.637751 1.443327 -0.060772 13.904935 -1.769824 -0.867307 -7.197212 3.432987 6.735098 2.857667 -4.456227 14.111907 -15.164587 -1.993172 -5.172701 6.998076 0.908955 1.394666 -2.896905 7.556430 -10.179424 -2.069299 -6.845260 7.085178 0.549249 1.747438 0.021466 -4.063804 -4.528843 -0.133651 5.322923 0.579942 -1.980270 1.231970 -0.735639 -0.866164 2.883281 8.999442 19.334258 0.791437 -16.441960 -11.383503 -4.689730 -55.266539 -40.221615 22.047020 159.223092 -49.504011 -143.819392 12.336509 -5.510791 -34.637131 -5.863748 -0.438680 13.501776 2.622160 -0.096579 4.897553 30.530286 -16.910728 25.876003 153.242494 60.283371 173.508739 10.887685 11.016322 -24.751566 1.739369 4.664473 2.511465 
